<svg width="100" height="60" viewBox="0 0 100 60" fill="none" xmlns="http://www.w3.org/2000/svg">
  <defs>
    <linearGradient id="logo-gradient" x1="0%" y1="0%" x2="100%" y2="100%">
      <stop offset="0%" stop-color="#FF8C00" />
      <stop offset="100%" stop-color="#FF4500" />
    </linearGradient>
  </defs>
  <!-- Left part of M -->
  <path d="M10 50 L40 10 L50 25 L45 50 Z" fill="url(#logo-gradient)" />
  <!-- Right part of M -->
  <path d="M55 10 L85 50 L35 50 L53 28 Z" fill="url(#logo-gradient)" />
  <!-- Gear shape -->
  <circle cx="70" cy="50" r="10" fill="#050505" />
  <path d="M70 38 L72 38 L73 41 C73.5 41 74 41.2 74.5 41.5 L77 40 L78 41 L77 43.5 C77.3 44 77.5 44.5 77.7 45.1 L80.5 45.8 L80.5 47 L77.7 47.7 C77.5 48.3 77.3 48.8 77 49.3 L78 51.8 L77 52.8 L74.5 51.3 C74 51.6 73.5 51.8 73 51.8 L72 54.8 L70 54.8 L69 51.8 C68.5 51.8 68 51.6 67.5 51.3 L65 52.8 L64 51.8 L65 49.3 C64.7 48.8 64.5 48.3 64.3 47.7 L61.5 47 L61.5 45.8 L64.3 45.1 C64.5 44.5 64.7 44 65 43.5 L64 41 L65 40 L67.5 41.5 C68 41.2 68.5 41 69 41 L70 38 Z" fill="#050505" />
  <circle cx="70" cy="50" r="4" fill="url(#logo-gradient)" />
</svg>
